<svg xmlns="http://www.w3.org/2000/svg" width="128" height="128" fill="none"><g clip-path="url(#a)"><path fill="url(#b)" d="M0 19C0 10.163 7.163 3 16 3h54c8.837 0 16 7.163 16 16v78.555c0 3.189-3.549 5.096-6.208 3.335L45.208 77.996a4 4 0 0 0-4.416 0L6.208 100.89C3.548 102.651 0 100.744 0 97.555z"/><path fill="#350A1A" fill-opacity=".5" d="M0 19C0 10.163 7.163 3 16 3h54c8.837 0 16 7.163 16 16v78.555c0 3.189-3.549 5.096-6.208 3.335L45.208 77.996a4 4 0 0 0-4.416 0L6.208 100.89C3.548 102.651 0 100.744 0 97.555z"/><path fill="url(#c)" d="M0 16C0 7.163 7.163 0 16 0h54c8.837 0 16 7.163 16 16v78.555c0 3.189-3.549 5.096-6.208 3.335L45.208 74.996a4 4 0 0 0-4.416 0L6.208 97.89C3.548 99.65 0 97.744 0 94.555z"/><path fill="#350A1A" fill-opacity=".25" d="M0 16C0 7.163 7.163 0 16 0h54c8.837 0 16 7.163 16 16v78.555c0 3.189-3.549 5.096-6.208 3.335L45.208 74.996a4 4 0 0 0-4.416 0L6.208 97.89C3.548 99.65 0 97.744 0 94.555z"/><path fill="url(#d)" d="M110 120.032V43.857c0-13.255-10.745-24-24-24H54c-13.255 0-24 10.745-24 24v76.175c0 7.085 8.617 10.633 13.657 5.623l20.686-20.563c3.124-3.106 8.19-3.106 11.314 0l20.686 20.563c5.04 5.01 13.657 1.462 13.657-5.623"/><path fill="#000" fill-opacity=".2" d="M110 120.032V43.857c0-13.255-10.745-24-24-24H54c-13.255 0-24 10.745-24 24v76.175c0 7.085 8.617 10.633 13.657 5.623l20.686-20.563c3.124-3.106 8.19-3.106 11.314 0l20.686 20.563c5.04 5.01 13.657 1.462 13.657-5.623"/><path fill="#D9D9D9" d="M94 0H14c9.255 0 16 6.681 16 15.857v98.175c0 7.084 8.617 10.633 13.657 5.623l20.686-20.563c3.124-3.105 8.19-3.105 11.314 0l20.686 20.563c5.04 5.01 13.657 1.461 13.657-5.623V15.857C110 6.68 103.255 0 94 0"/><path fill="url(#e)" d="M94 0H14c9.255 0 16 6.681 16 15.857v98.175c0 7.084 8.617 10.633 13.657 5.623l20.686-20.563c3.124-3.105 8.19-3.105 11.314 0l20.686 20.563c5.04 5.01 13.657 1.461 13.657-5.623V15.857C110 6.68 103.255 0 94 0"/><circle cx="96" cy="96" r="32" fill="url(#f)"/><circle cx="96" cy="96" r="32" fill="#000" fill-opacity=".2"/><circle cx="96" cy="94" r="32" fill="url(#g)"/><path stroke="url(#h)" stroke-linecap="round" stroke-linejoin="round" stroke-width="12" d="M112 94H80m16 16V78"/></g><defs><linearGradient id="b" x1="43" x2="43" y1="3" y2="105" gradientUnits="userSpaceOnUse"><stop stop-color="#FF859F"/><stop offset="1" stop-color="#FF176C"/></linearGradient><linearGradient id="c" x1="43" x2="43" y1="0" y2="102" gradientUnits="userSpaceOnUse"><stop stop-color="#FF859F"/><stop offset="1" stop-color="#FF176C"/></linearGradient><linearGradient id="d" x1="62" x2="62" y1="4" y2="132" gradientUnits="userSpaceOnUse"><stop stop-color="#FF859F"/><stop offset="1" stop-color="#FF176C"/></linearGradient><linearGradient id="e" x1="62" x2="62" y1="0" y2="128" gradientUnits="userSpaceOnUse"><stop stop-color="#FF859F"/><stop offset="1" stop-color="#FF176C"/></linearGradient><linearGradient id="f" x1="96" x2="96" y1="64" y2="128" gradientUnits="userSpaceOnUse"><stop stop-color="#E6D3FF"/><stop offset="1" stop-color="#C8A0FF"/></linearGradient><linearGradient id="g" x1="96" x2="96" y1="62" y2="126" gradientUnits="userSpaceOnUse"><stop stop-color="#E6D3FF"/><stop offset="1" stop-color="#C8A0FF"/></linearGradient><linearGradient id="h" x1="96" x2="96" y1="78" y2="110" gradientUnits="userSpaceOnUse"><stop stop-color="#9F5AFF"/><stop offset="1" stop-color="#5700D0"/></linearGradient><clipPath id="a"><path fill="#fff" d="M0 0h128v128H0z"/></clipPath></defs></svg>