<svg xmlns="http://www.w3.org/2000/svg" width="128" height="128" fill="none"><g clip-path="url(#a)"><path fill="url(#b)" d="M0 32c0-8.837 7.163-16 16-16h16c8.837 0 16 7.163 16 16v60.343c0 3.564-4.309 5.348-6.828 2.829L26.828 80.828a4 4 0 0 0-5.656 0L6.828 95.172C4.308 97.692 0 95.907 0 92.343z"/><path fill="#350A1A" fill-opacity=".25" d="M0 32c0-8.837 7.163-16 16-16h16c8.837 0 16 7.163 16 16v60.343c0 3.564-4.309 5.348-6.828 2.829L26.828 80.828a4 4 0 0 0-5.656 0L6.828 95.172C4.308 97.692 0 95.907 0 92.343z"/><path fill="url(#c)" d="M16 24.056C16 10.77 26.745 0 40 0h48c13.255 0 24 10.77 24 24.056v95.909c0 7.144-8.617 10.722-13.657 5.67L69.657 96.882a7.987 7.987 0 0 0-11.314 0l-28.686 28.753c-5.04 5.052-13.657 1.474-13.657-5.67z"/><circle cx="96" cy="96" r="32" fill="url(#d)"/><path stroke="url(#e)" stroke-linecap="round" stroke-linejoin="round" stroke-width="12" d="M112 96H80m16 16V80"/></g><defs><linearGradient id="b" x1="24" x2="24" y1="16" y2="102" gradientUnits="userSpaceOnUse"><stop stop-color="#FF859F"/><stop offset="1" stop-color="#FF176C"/></linearGradient><linearGradient id="c" x1="64" x2="64" y1="0" y2="128" gradientUnits="userSpaceOnUse"><stop stop-color="#FF859F"/><stop offset="1" stop-color="#FF176C"/></linearGradient><linearGradient id="d" x1="96" x2="96" y1="64" y2="128" gradientUnits="userSpaceOnUse"><stop stop-color="#E6D3FF"/><stop offset="1" stop-color="#C8A0FF"/></linearGradient><linearGradient id="e" x1="96" x2="96" y1="80" y2="112" gradientUnits="userSpaceOnUse"><stop stop-color="#9F5AFF"/><stop offset="1" stop-color="#5700D0"/></linearGradient><clipPath id="a"><path fill="#fff" d="M0 0h128v128H0z"/></clipPath></defs></svg>