<svg xmlns="http://www.w3.org/2000/svg" width="128" height="128" fill="none"><path fill="url(#a)" d="M100 36H28C12.536 36 0 48.536 0 64v32c0 17.673 14.327 32 32 32h68c15.464 0 28-12.536 28-28V64c0-15.464-12.536-28-28-28"/><path fill="url(#b)" d="M0 36h128v64c0 15.464-12.536 28-28 28H40L0 88z"/><mask id="c" width="128" height="92" x="0" y="36" maskUnits="userSpaceOnUse" style="mask-type:alpha"><path fill="#D9D9D9" d="M100 36H28C12.536 36 0 48.536 0 64v24l40 40h60c15.464 0 28-12.536 28-28V64c0-15.464-12.536-28-28-28"/></mask><g mask="url(#c)"><path fill="url(#d)" d="M0 88h12c15.464 0 28 12.536 28 28v12H0z"/></g><path fill="#4A24FF" d="M0 36h128v2a2 2 0 0 1-2 2H2a2 2 0 0 1-2-2z"/><path fill="#7356FF" d="M128 36v-8c0-15.464-12.536-28-28-28H28C12.536 0 0 12.536 0 28v8z"/><rect width="64" height="6" x="32" y="15" fill="#C6BAFF" rx="3"/><defs><linearGradient id="a" x1="64" x2="64" y1="89.5" y2="128" gradientUnits="userSpaceOnUse"><stop stop-color="#7356FF"/><stop offset="1" stop-color="#453499"/></linearGradient><linearGradient id="b" x1="128" x2="0" y1="36" y2="128" gradientUnits="userSpaceOnUse"><stop stop-color="#C7BBFF"/><stop offset="1" stop-color="#8167FF"/></linearGradient><linearGradient id="d" x1="40" x2="0" y1="88" y2="128" gradientUnits="userSpaceOnUse"><stop stop-color="#DED7FF"/><stop offset="1" stop-color="#8D75FF"/></linearGradient></defs></svg>