<svg xmlns="http://www.w3.org/2000/svg" width="128" height="128" fill="none"><g clip-path="url(#a)"><path fill="url(#b)" d="M128 64c0 35.346-28.654 64-64 64S0 99.346 0 64C0 40.311 12.87 19.628 32 8.562 41.414 3.117 52.343 0 64 0s22.586 3.117 32 8.562C115.13 19.628 128 40.311 128 64"/><path fill="#49FF87" d="M62.245 27.208c.759-1.387 2.751-1.387 3.51 0L72.52 39.58a40 40 0 0 0 15.901 15.9l12.371 6.766c1.387.759 1.387 2.751 0 3.51L88.421 72.52a40 40 0 0 0-15.9 15.901l-6.766 12.371c-.759 1.387-2.751 1.387-3.51 0L55.48 88.421a40 40 0 0 0-15.901-15.9l-12.37-6.766c-1.388-.759-1.388-2.751 0-3.51l12.37-6.765a40 40 0 0 0 15.9-15.901z"/></g><defs><linearGradient id="b" x1="64" x2="64" y1="0" y2="128" gradientUnits="userSpaceOnUse"><stop stop-color="#00B47E"/><stop offset="1" stop-color="#006553"/></linearGradient><clipPath id="a"><path fill="#fff" d="M0 0h128v128H0z"/></clipPath></defs></svg>