<svg xmlns="http://www.w3.org/2000/svg" width="128" height="128" fill="none"><g clip-path="url(#a)"><circle cx="64" cy="64" r="64" fill="url(#b)"/><circle cx="68" cy="60" r="32" fill="#FFC700"/><path fill="#D2E1FF" fill-rule="evenodd" d="M32 96a8 8 0 0 1 8-8h12a8 8 0 1 1 0 16H40a8 8 0 0 1-8-8M20 76a8 8 0 0 1 8-8h24a8 8 0 1 1 0 16H28a8 8 0 0 1-8-8" clip-rule="evenodd"/></g><defs><linearGradient id="b" x1="64" x2="64" y1="0" y2="128" gradientUnits="userSpaceOnUse"><stop stop-color="#4891FF"/><stop offset="1" stop-color="#06F"/></linearGradient><clipPath id="a"><path fill="#fff" d="M0 0h128v128H0z"/></clipPath></defs></svg>