<svg xmlns="http://www.w3.org/2000/svg" width="128" height="128" fill="none"><path fill="url(#a)" d="M100 36H28C12.536 36 0 48.536 0 64v32c0 17.673 14.327 32 32 32h68c15.464 0 28-12.536 28-28V64c0-15.464-12.536-28-28-28"/><path fill="url(#b)" d="M0 36h128v64c0 15.464-12.536 28-28 28H40L0 88z"/><mask id="c" width="128" height="92" x="0" y="36" maskUnits="userSpaceOnUse" style="mask-type:alpha"><path fill="#D9D9D9" d="M100 36H28C12.536 36 0 48.536 0 64v24l40 40h60c15.464 0 28-12.536 28-28V64c0-15.464-12.536-28-28-28"/></mask><g mask="url(#c)"><path fill="#fff" d="M62.245 57.208c.759-1.387 2.751-1.387 3.51 0l4.21 7.697a28 28 0 0 0 11.13 11.13l7.697 4.21c1.387.759 1.387 2.751 0 3.51l-7.697 4.21a28 28 0 0 0-11.13 11.13l-4.21 7.697c-.759 1.387-2.751 1.387-3.51 0l-4.21-7.697a28 28 0 0 0-11.13-11.13l-7.697-4.21c-1.387-.759-1.387-2.751 0-3.51l7.697-4.21a28 28 0 0 0 11.13-11.13z"/><path fill="url(#d)" d="M0 88h12c15.464 0 28 12.536 28 28v12H0z"/></g><path fill="#0094E7" d="M0 36h128v2a2 2 0 0 1-2 2H2a2 2 0 0 1-2-2z"/><path fill="#56B8FF" d="M128 36v-8c0-15.464-12.536-28-28-28H28C12.536 0 0 12.536 0 28v8z"/><rect width="64" height="6" x="32" y="15" fill="#BAE6FF" rx="3"/><defs><linearGradient id="a" x1="64" x2="64" y1="89.5" y2="128" gradientUnits="userSpaceOnUse"><stop stop-color="#56B8FF"/><stop offset="1" stop-color="#1D8DA6"/></linearGradient><linearGradient id="b" x1="128" x2="0" y1="36" y2="128" gradientUnits="userSpaceOnUse"><stop stop-color="#8EBBFF"/><stop offset="1" stop-color="#5ABAFF"/></linearGradient><linearGradient id="d" x1="40" x2="0" y1="88" y2="128" gradientUnits="userSpaceOnUse"><stop stop-color="#D7EEFF"/><stop offset="1" stop-color="#75CDFF"/></linearGradient></defs></svg>