<svg xmlns="http://www.w3.org/2000/svg" width="128" height="128" fill="none"><g clip-path="url(#a)"><rect width="128" height="128" fill="url(#b)" rx="24"/><mask id="c" width="128" height="124" x="0" y="0" maskUnits="userSpaceOnUse" style="mask-type:alpha"><rect width="128" height="124" fill="#D9D9D9" rx="24"/></mask><g mask="url(#c)"><rect width="128" height="124" fill="url(#d)" rx="24"/><path fill="url(#e)" d="M12 84H0l40 40v-12a27.88 27.88 0 0 0-6.009-17.333A28 28 0 0 0 32 92.404C26.918 87.218 19.835 84 12 84"/><path fill="url(#f)" d="M0 84v40h40z"/><path fill="#B50016" d="M0 29h128v2a4 4 0 0 1-4 4H4a4 4 0 0 1-4-4z"/><path fill="#DF1830" d="M124 32a4 4 0 0 0 4-4v-4c0-13.255-10.745-24-24-24H24C10.745 0 0 10.745 0 24v4a4 4 0 0 0 4 4z"/><path fill="#FF5656" d="M84 2h16v12a8 8 0 1 1-16 0zM28 2h16v12a8 8 0 1 1-16 0z"/><path fill="#FF8B8B" d="M84 0h16v12a8 8 0 1 1-16 0zM28 0h16v12a8 8 0 1 1-16 0z"/><path stroke="#980000" stroke-linecap="round" stroke-width="4" d="m118 124.5-33.5-57-13.5 17L52.5 40 33 48 10 3"/><path stroke="#fff" stroke-linecap="round" stroke-width="12" d="m46 96 36-36m0 36L46 60"/></g></g><defs><linearGradient id="b" x1="0" x2="128" y1="128" y2="128" gradientUnits="userSpaceOnUse"><stop stop-color="#802020"/><stop offset=".08" stop-color="#B02020"/><stop offset=".2" stop-color="#601010"/><stop offset=".8" stop-color="#601010"/><stop offset=".92" stop-color="#B02020"/><stop offset="1" stop-color="#802020"/></linearGradient><linearGradient id="d" x1="128" x2="-23.144" y1="0" y2="80.6" gradientUnits="userSpaceOnUse"><stop stop-color="#FF8989"/><stop offset="1" stop-color="#FF5656"/></linearGradient><linearGradient id="e" x1="40" x2="0" y1="84" y2="124" gradientUnits="userSpaceOnUse"><stop stop-color="#FFDEE4"/><stop offset="1" stop-color="#D7162D"/></linearGradient><linearGradient id="f" x1="20" x2="20" y1="84" y2="124" gradientUnits="userSpaceOnUse"><stop stop-color="#FF3F61"/><stop offset="1" stop-color="#BF1E31"/></linearGradient><clipPath id="a"><path fill="#fff" d="M0 0h128v128H0z"/></clipPath></defs></svg>