<svg xmlns="http://www.w3.org/2000/svg" width="128" height="128" fill="none"><mask id="a" width="128" height="92" x="0" y="36" maskUnits="userSpaceOnUse" style="mask-type:alpha"><path fill="#D9D9D9" d="M128 36H0v60c0 17.673 14.327 32 32 32h68c15.464 0 28-12.536 28-28z"/></mask><g mask="url(#a)"><path fill="#8F78FF" d="M32 40h32v29.333H32z"/><path fill="#8167FF" d="M0 40h32v29.333H0z"/><path fill="#9D89FF" d="M64 40h32v29.333H64z"/><path fill="#AB9AFF" d="M96 40h32v29.333H96z"/><path fill="#9D89FF" fill-opacity=".66" d="M0 98.667h32V128H0z"/><path fill="#B9ABFF" fill-opacity=".33" d="M64 98.667h32V128H64z"/><path fill="#9D89FF" fill-opacity=".33" d="M32 69.333h32v29.333H32z"/><path fill="#8F78FF" d="M0 69.333h32v29.333H0z"/><path fill="#AB9AFF" d="M64 69.333h32v29.333H64z"/><path fill="#B9ABFF" fill-opacity=".66" d="M96 69.333h32v29.333H96z"/></g><path fill="#4A24FF" d="M0 36h128v2a2 2 0 0 1-2 2H2a2 2 0 0 1-2-2z"/><path fill="#7356FF" d="M128 36v-8c0-15.464-12.536-28-28-28H28C12.536 0 0 12.536 0 28v8z"/><rect width="64" height="6" x="32" y="15" fill="#C6BAFF" rx="3"/></svg>