<svg xmlns="http://www.w3.org/2000/svg" width="128" height="128" fill="none"><g clip-path="url(#a)"><rect width="128" height="128" fill="url(#b)" rx="24"/><mask id="c" width="128" height="124" x="0" y="0" maskUnits="userSpaceOnUse" style="mask-type:alpha"><rect width="128" height="124" fill="#D9D9D9" rx="24"/></mask><g mask="url(#c)"><path fill="#8F78FF" d="M32 31h32v31H32z"/><path fill="#8167FF" d="M0 31h32v31H0z"/><path fill="#9D89FF" d="M64 31h32v31H64z"/><path fill="#AB9AFF" d="M96 31h32v31H96z"/><path fill="#202020" d="M32 93h32v31H32zM0 93h32v31H0z"/><path fill="#9D89FF" fill-opacity=".66" d="M0 93h32v31H0z"/><path fill="#202020" d="M64 93h32v31H64z"/><path fill="#B9ABFF" fill-opacity=".33" d="M64 93h32v31H64z"/><path fill="#202020" d="M32 62h32v31H32z"/><path fill="#9D89FF" fill-opacity=".33" d="M32 62h32v31H32z"/><path fill="#8F78FF" d="M0 62h32v31H0z"/><path fill="#AB9AFF" d="M64 62h32v31H64z"/><path fill="#202020" d="M96 93h32v31H96zm0-31h32v31H96z"/><path fill="#B9ABFF" fill-opacity=".66" d="M96 62h32v31H96z"/><path fill="#404040" d="M0 29h128v2a4 4 0 0 1-4 4H4a4 4 0 0 1-4-4z"/><path fill="gray" d="M124 32a4 4 0 0 0 4-4v-4c0-13.255-10.745-24-24-24H24C10.745 0 0 10.745 0 24v4a4 4 0 0 0 4 4z"/><path fill="#A0A0A0" d="M84 2h16v12a8 8 0 1 1-16 0zM28 2h16v12a8 8 0 1 1-16 0z"/><path fill="#D0D0D0" d="M84 0h16v12a8 8 0 1 1-16 0zM28 0h16v12a8 8 0 1 1-16 0z"/></g></g><defs><linearGradient id="b" x1="0" x2="128" y1="128" y2="128" gradientUnits="userSpaceOnUse"><stop stop-color="#404040"/><stop offset=".08" stop-color="#606060"/><stop offset=".2" stop-color="#303030"/><stop offset=".8" stop-color="#303030"/><stop offset=".92" stop-color="#606060"/><stop offset="1" stop-color="#404040"/></linearGradient><clipPath id="a"><path fill="#fff" d="M0 0h128v128H0z"/></clipPath></defs></svg>