<svg xmlns="http://www.w3.org/2000/svg" width="128" height="128" fill="none"><g clip-path="url(#a)"><rect width="128" height="128" fill="url(#b)" rx="24"/><rect width="128" height="128" fill="#000" fill-opacity=".2" rx="24"/><path fill="url(#c)" d="M128 85H40v37.8c0 1.12 0 1.68.218 2.108.192.376.498.682.874.874.428.218.988.218 2.108.218h46.4c13.441 0 20.162 0 25.296-2.616a24 24 0 0 0 10.488-10.488C128 107.762 128 101.041 128 87.6z"/><path fill="#000" fill-opacity=".05" d="M128 85H40v37.8c0 1.12 0 1.68.218 2.108.192.376.498.682.874.874.428.218.988.218 2.108.218h46.4c13.441 0 20.162 0 25.296-2.616a24 24 0 0 0 10.488-10.488C128 107.762 128 101.041 128 87.6z"/><mask id="d" width="128" height="124" x="0" y="0" maskUnits="userSpaceOnUse" style="mask-type:alpha"><rect width="128" height="124" fill="#D9D9D9" rx="24"/></mask><g mask="url(#d)"><path fill="#8F78FF" d="M32 31h32v31H32z"/><path fill="#8167FF" d="M0 31h32v31H0z"/><path fill="#9D89FF" d="M64 31h32v31H64z"/><path fill="#AB9AFF" d="M96 31h32v31H96zM32 93h32v31H32z"/><path fill="#9D89FF" d="M0 93h32v31H0z"/><path fill="#B9ABFF" d="M64 93h32v31H64z"/><path fill="#9D89FF" d="M32 62h32v31H32z"/><path fill="#8F78FF" d="M0 62h32v31H0z"/><path fill="#AB9AFF" d="M64 62h32v31H64z"/><path fill="#C7BBFF" d="M96 93h32v31H96z"/><path fill="#B9ABFF" d="M96 62h32v31H96z"/><path fill="url(#e)" d="M12 84H0l40 40v-12a27.88 27.88 0 0 0-6.009-17.333A28 28 0 0 0 32 92.404C26.918 87.218 19.835 84 12 84"/><path fill="url(#f)" d="M0 84v40h40z"/><path fill="#4A24FF" d="M0 29h128v2a4 4 0 0 1-4 4H4a4 4 0 0 1-4-4z"/><path fill="#7255FE" d="M124 32a4 4 0 0 0 4-4v-4c0-13.255-10.745-24-24-24H24C10.745 0 0 10.745 0 24v4a4 4 0 0 0 4 4z"/><path fill="#9C87FF" d="M84 2h16v12a8 8 0 1 1-16 0zM28 2h16v12a8 8 0 1 1-16 0z"/><path fill="#C6BAFF" d="M84 0h16v12a8 8 0 1 1-16 0zM28 0h16v12a8 8 0 1 1-16 0z"/></g></g><defs><linearGradient id="b" x1="0" x2="128" y1="128" y2="128" gradientUnits="userSpaceOnUse"><stop stop-color="#7054F8"/><stop offset=".08" stop-color="#8369FF"/><stop offset=".2" stop-color="#46349B"/><stop offset=".8" stop-color="#46349B"/><stop offset=".92" stop-color="#8369FF"/><stop offset="1" stop-color="#7054F8"/></linearGradient><linearGradient id="c" x1="128" x2="1.5" y1="126" y2="126" gradientUnits="userSpaceOnUse"><stop stop-color="#9D89FF"/><stop offset=".08" stop-color="#AB9AFF"/><stop offset=".2" stop-color="#8167FF"/><stop offset=".8" stop-color="#8167FF"/><stop offset=".92" stop-color="#AB9AFF"/><stop offset="1" stop-color="#9D89FF"/></linearGradient><linearGradient id="e" x1="40" x2="0" y1="84" y2="124" gradientUnits="userSpaceOnUse"><stop stop-color="#DED7FF"/><stop offset="1" stop-color="#8D75FF"/></linearGradient><linearGradient id="f" x1="20" x2="20" y1="36" y2="124" gradientUnits="userSpaceOnUse"><stop stop-color="#7356FF"/><stop offset="1" stop-color="#453499"/></linearGradient><clipPath id="a"><path fill="#fff" d="M0 0h128v128H0z"/></clipPath></defs></svg>