<svg xmlns="http://www.w3.org/2000/svg" width="128" height="128" fill="none"><mask id="a" width="128" height="128" x="0" y="0" maskUnits="userSpaceOnUse" style="mask-type:alpha"><path fill="#D9D9D9" d="M0 0h128v128H0z"/></mask><g mask="url(#a)"><rect width="128" height="64" y="64" fill="url(#b)" rx="12"/><rect width="124" height="60" x="2" y="58" fill="url(#c)" stroke="#202020" stroke-width="4" rx="10"/><path fill="url(#d)" d="M20.929 38.929c-3.905 3.905-3.905 10.237 0 14.142s10.237 3.905 14.142 0zM64 10l7.071-7.071c-3.905-3.905-10.237-3.905-14.142 0zm28.929 43.071c3.905 3.905 10.237 3.905 14.142 0s3.905-10.237 0-14.142zm-57.858 0 36-36L56.93 2.93l-36 36zm72-14.142-36-36L56.93 17.07l36 36zM54 10v106h20V10z"/><rect width="6" height="16" x="9" y="84" fill="#202020" rx="3"/><rect width="6" height="6" x="9" y="76" fill="#202020" rx="3"/><g fill="#000" fill-opacity=".15" filter="url(#e)"><path d="M54.708 127h18v-6h-18zm36-3A8.98 8.98 0 0 0 84 127h13.417a8.98 8.98 0 0 0-6.709-3m-47.291 3a8.98 8.98 0 0 0-6.709-3A8.98 8.98 0 0 0 30 127z"/></g></g><defs><linearGradient id="b" x1="64" x2="64" y1="111.5" y2="123.5" gradientUnits="userSpaceOnUse"><stop stop-color="#D9D9D9"/><stop offset="1" stop-color="#737373"/></linearGradient><linearGradient id="c" x1="128" x2="0" y1="88" y2="88" gradientUnits="userSpaceOnUse"><stop stop-color="#48FF66"/><stop offset=".5" stop-color="#46FFFF"/><stop offset="1" stop-color="#46A6FF"/></linearGradient><linearGradient id="d" x1="64" x2="64" y1="12" y2="116" gradientUnits="userSpaceOnUse"><stop stop-color="#FF3EEC"/><stop offset=".657" stop-color="#CD7BFF"/><stop offset=".946" stop-color="#47DCBF"/></linearGradient><filter id="e" width="75.417" height="14" x="26" y="117" color-interpolation-filters="sRGB" filterUnits="userSpaceOnUse"><feFlood flood-opacity="0" result="BackgroundImageFix"/><feBlend in="SourceGraphic" in2="BackgroundImageFix" result="shape"/><feGaussianBlur result="effect1_foregroundBlur_1190_19" stdDeviation="2"/></filter></defs></svg>