<svg xmlns="http://www.w3.org/2000/svg" width="128" height="128" fill="none"><g clip-path="url(#a)"><mask id="b" width="128" height="128" x="0" y="0" maskUnits="userSpaceOnUse" style="mask-type:alpha"><path fill="#D9D9D9" d="M0 0h128v128H0z"/></mask><g mask="url(#b)"><path fill="url(#c)" d="M0 72c0-6.627 5.373-12 12-12h104c6.627 0 12 5.373 12 12v46c0 5.523-4.477 10-10 10H10c-5.523 0-10-4.477-10-10z"/><rect width="124" height="60" x="2" y="62" fill="url(#d)" stroke="#202020" stroke-width="4" rx="10"/><path fill="url(#e)" d="M20.929 42.929c-3.905 3.905-3.905 10.237 0 14.142s10.237 3.905 14.142 0zM64 14l7.071-7.071c-3.905-3.905-10.237-3.905-14.142 0zm28.929 43.071c3.905 3.905 10.237 3.905 14.142 0s3.905-10.237 0-14.142zm-57.858 0 36-36L56.93 6.93l-36 36zm72-14.142-36-36L56.93 21.07l36 36zM54 14v102h20V14z"/><path fill="url(#f)" d="M20.929 42.929c-3.905 3.905-3.905 10.237 0 14.142s10.237 3.905 14.142 0zM64 14l7.071-7.071c-3.905-3.905-10.237-3.905-14.142 0zm28.929 43.071c3.905 3.905 10.237 3.905 14.142 0s3.905-10.237 0-14.142zm-57.858 0 36-36L56.93 6.93l-36 36zm72-14.142-36-36L56.93 21.07l36 36zM54 14v102h20V14z"/><path fill="#000" fill-opacity=".2" d="M20.929 42.929c-3.905 3.905-3.905 10.237 0 14.142s10.237 3.905 14.142 0zM64 14l7.071-7.071c-3.905-3.905-10.237-3.905-14.142 0zm28.929 43.071c3.905 3.905 10.237 3.905 14.142 0s3.905-10.237 0-14.142zm-57.858 0 36-36L56.93 6.93l-36 36zm72-14.142-36-36L56.93 21.07l36 36zM54 14v102h20V14z"/><path fill="url(#g)" d="M20.929 38.929c-3.905 3.905-3.905 10.237 0 14.142s10.237 3.905 14.142 0zM64 10l7.071-7.071c-3.905-3.905-10.237-3.905-14.142 0zm28.929 43.071c3.905 3.905 10.237 3.905 14.142 0s3.905-10.237 0-14.142zm-57.858 0 36-36L56.93 2.93l-36 36zm72-14.142-36-36L56.93 17.07l36 36zM54 10v106h20V10z"/><path fill="url(#h)" d="M20.929 38.929c-3.905 3.905-3.905 10.237 0 14.142s10.237 3.905 14.142 0zM64 10l7.071-7.071c-3.905-3.905-10.237-3.905-14.142 0zm28.929 43.071c3.905 3.905 10.237 3.905 14.142 0s3.905-10.237 0-14.142zm-57.858 0 36-36L56.93 2.93l-36 36zm72-14.142-36-36L56.93 17.07l36 36zM54 10v106h20V10z"/><rect width="4" height="12" x="8" y="89" fill="#202020" rx="2"/><rect width="4" height="4" x="8" y="83" fill="#202020" rx="2"/></g></g><defs><linearGradient id="c" x1="128" x2="0" y1="128" y2="128" gradientUnits="userSpaceOnUse"><stop stop-color="#707070"/><stop offset=".053" stop-color="#909090"/><stop offset=".1" stop-color="#505050"/><stop offset=".9" stop-color="#505050"/><stop offset=".95" stop-color="#909090"/><stop offset="1" stop-color="#707070"/></linearGradient><linearGradient id="d" x1="128" x2="0" y1="92" y2="92" gradientUnits="userSpaceOnUse"><stop stop-color="#0085FF"/><stop offset="1" stop-color="#46FFFF"/></linearGradient><linearGradient id="e" x1="100" x2="28" y1="67" y2="67" gradientUnits="userSpaceOnUse"><stop stop-color="#0085FF"/><stop offset="1" stop-color="#46FFFF"/></linearGradient><linearGradient id="f" x1="64" x2="64" y1="16" y2="120" gradientUnits="userSpaceOnUse"><stop stop-color="#00FF4D"/><stop offset=".541" stop-color="#00FF80"/><stop offset=".946" stop-color="#00FF80" stop-opacity="0"/></linearGradient><linearGradient id="g" x1="100" x2="28" y1="63" y2="63" gradientUnits="userSpaceOnUse"><stop stop-color="#0085FF"/><stop offset="1" stop-color="#46FFFF"/></linearGradient><linearGradient id="h" x1="64" x2="64" y1="12" y2="116" gradientUnits="userSpaceOnUse"><stop stop-color="#00FF4D"/><stop offset=".541" stop-color="#00FF80"/><stop offset=".946" stop-color="#00FF80" stop-opacity="0"/></linearGradient><clipPath id="a"><path fill="#fff" d="M0 0h128v128H0z"/></clipPath></defs></svg>