<svg xmlns="http://www.w3.org/2000/svg" width="128" height="128" fill="none"><mask id="a" width="128" height="128" x="0" y="0" maskUnits="userSpaceOnUse" style="mask-type:alpha"><path fill="#D9D9D9" d="M0 0h128v128H0z"/></mask><g mask="url(#a)"><rect width="128" height="64" y="64" fill="#36353F" rx="12"/><rect width="124" height="60" x="2" y="58" fill="url(#b)" stroke="#202020" stroke-width="4" rx="10"/><path fill="url(#c)" d="M20.929 38.929c-3.905 3.905-3.905 10.237 0 14.142s10.237 3.905 14.142 0zM64 10l7.071-7.071c-3.905-3.905-10.237-3.905-14.142 0zm28.929 43.071c3.905 3.905 10.237 3.905 14.142 0s3.905-10.237 0-14.142zm-57.858 0 36-36L56.93 2.93l-36 36zm72-14.142-36-36L56.93 17.07l36 36zM54 10v106h20V10z"/><rect width="6" height="16" x="9" y="84" fill="#202020" rx="3"/><rect width="6" height="6" x="9" y="76" fill="#202020" rx="3"/></g><defs><linearGradient id="b" x1="128" x2="0" y1="88" y2="88" gradientUnits="userSpaceOnUse"><stop stop-color="#48FF66"/><stop offset=".5" stop-color="#46FFFF"/><stop offset="1" stop-color="#46A6FF"/></linearGradient><linearGradient id="c" x1="64" x2="64" y1="12" y2="116" gradientUnits="userSpaceOnUse"><stop stop-color="#FF3EEC"/><stop offset=".657" stop-color="#CD7BFF"/><stop offset=".946" stop-color="#47DCBF"/></linearGradient></defs></svg>