<svg xmlns="http://www.w3.org/2000/svg" width="128" height="128" fill="none"><g clip-path="url(#a)"><path fill="url(#b)" d="M128 64c0 35.346-28.654 64-64 64S0 99.346 0 64C0 40.311 12.87 19.628 32 8.562 41.414 3.117 52.343 0 64 0s22.586 3.117 32 8.562C115.13 19.628 128 40.311 128 64"/><path fill="url(#c)" fill-rule="evenodd" d="M33.097 79.032a6 6 0 0 1 6-6h48a6 6 0 0 1 0 12h-48a6 6 0 0 1-6-6" clip-rule="evenodd"/><path fill="url(#d)" fill-rule="evenodd" d="M45.484 99.032a6 6 0 0 1 6-6h24a6 6 0 0 1 0 12h-24a6 6 0 0 1-6-6" clip-rule="evenodd"/><path fill="url(#e)" d="M32 60v1.032h64V60c0-17.673-14.327-32-32-32S32 42.327 32 60"/><path fill="url(#f)" fill-rule="evenodd" d="M36.155 57.032h55.69C90.362 42.964 78.462 32 64 32S37.638 42.964 36.155 57.032M28 60c0-19.882 16.118-36 36-36s36 16.118 36 36v1.032a4 4 0 0 1-4 4H32a4 4 0 0 1-4-4z" clip-rule="evenodd"/></g><defs><linearGradient id="b" x1="64" x2="64" y1="0" y2="128" gradientUnits="userSpaceOnUse"><stop stop-color="#8A00DF"/><stop offset="1" stop-color="#59008F"/></linearGradient><linearGradient id="c" x1="64" x2="64" y1="24" y2="105.032" gradientUnits="userSpaceOnUse"><stop stop-color="#FFF500"/><stop offset=".5" stop-color="#FF4D00"/><stop offset="1" stop-color="#FF004D"/></linearGradient><linearGradient id="d" x1="64" x2="64" y1="24" y2="105.032" gradientUnits="userSpaceOnUse"><stop stop-color="#FFF500"/><stop offset=".5" stop-color="#FF4D00"/><stop offset="1" stop-color="#FF004D"/></linearGradient><linearGradient id="e" x1="64" x2="64" y1="24" y2="105.032" gradientUnits="userSpaceOnUse"><stop stop-color="#FFF500"/><stop offset=".5" stop-color="#FF4D00"/><stop offset="1" stop-color="#FF004D"/></linearGradient><linearGradient id="f" x1="64" x2="64" y1="24" y2="105.032" gradientUnits="userSpaceOnUse"><stop stop-color="#FFF500"/><stop offset=".5" stop-color="#FF4D00"/><stop offset="1" stop-color="#FF004D"/></linearGradient><clipPath id="a"><path fill="#fff" d="M0 0h128v128H0z"/></clipPath></defs></svg>