<svg xmlns="http://www.w3.org/2000/svg" width="128" height="128" fill="none"><g clip-path="url(#a)"><rect width="128" height="128" fill="url(#b)" rx="24"/><rect width="128" height="128" fill="#000" fill-opacity=".2" rx="24"/><mask id="c" width="128" height="124" x="0" y="0" maskUnits="userSpaceOnUse" style="mask-type:alpha"><rect width="128" height="124" fill="#D9D9D9" rx="24"/></mask><g mask="url(#c)"><rect width="128" height="124" fill="#D9D9D9" rx="24"/><rect width="128" height="124" fill="url(#d)" rx="24"/><path stroke="#fff" stroke-linecap="round" stroke-linejoin="round" stroke-width="12" d="M32 78.028h64M79 94l16.97-16L79 62M48.97 94 32 78l16.97-16"/><mask id="f" width="65" height="64" x="0" y="60" maskUnits="userSpaceOnUse" style="mask-type:alpha"><path fill="url(#e)" d="M0 60v64h64z"/></mask><g mask="url(#f)"><path fill="#8F78FF" d="M32 35h32v31H32z"/><path fill="#8167FF" d="M0 35h32v31H0z"/><path fill="#9D89FF" d="M64 35h32v31H64z"/><path fill="#AB9AFF" d="M32 97h32v31H32z"/><path fill="#9D89FF" d="M0 97h32v31H0z"/><path fill="#B9ABFF" d="M64 97h32v31H64z"/><path fill="#9D89FF" d="M32 66h32v31H32z"/><path fill="#8F78FF" d="M0 66h32v31H0z"/><path fill="#AB9AFF" d="M64 66h32v31H64z"/></g><path fill="url(#g)" d="M19.2 60H0l64 64v-19.2a44.6 44.6 0 0 0-9.614-27.733 45 45 0 0 0-3.186-3.62C43.069 65.149 31.736 60 19.2 60"/><path fill="#000" fill-opacity=".2" d="m0 60 64 64H24c-13.255 0-24-10.745-24-24z"/><path fill="#4A24FF" d="M0 29h128v2a4 4 0 0 1-4 4H4a4 4 0 0 1-4-4z"/><path fill="#7255FE" d="M124 32a4 4 0 0 0 4-4v-4c0-13.255-10.745-24-24-24H24C10.745 0 0 10.745 0 24v4a4 4 0 0 0 4 4z"/><path fill="#9C87FF" d="M84 2h16v12a8 8 0 1 1-16 0zM28 2h16v12a8 8 0 1 1-16 0z"/><path fill="#C6BAFF" d="M84 0h16v12a8 8 0 1 1-16 0zM28 0h16v12a8 8 0 1 1-16 0z"/></g></g><defs><linearGradient id="b" x1="0" x2="128" y1="128" y2="128" gradientUnits="userSpaceOnUse"><stop stop-color="#7054F8"/><stop offset=".08" stop-color="#8369FF"/><stop offset=".2" stop-color="#46349B"/><stop offset=".8" stop-color="#46349B"/><stop offset=".92" stop-color="#8369FF"/><stop offset="1" stop-color="#7054F8"/></linearGradient><linearGradient id="d" x1="128" x2="4.062" y1="0" y2="127.936" gradientUnits="userSpaceOnUse"><stop stop-color="#DED7FF"/><stop offset="1" stop-color="#8D75FF"/></linearGradient><linearGradient id="e" x1="32" x2="32" y1="-16.8" y2="124" gradientUnits="userSpaceOnUse"><stop stop-color="#C8BDFF"/><stop offset="1" stop-color="#6241FF"/></linearGradient><linearGradient id="g" x1="64" x2="0" y1="60" y2="124" gradientUnits="userSpaceOnUse"><stop stop-color="#DED7FF"/><stop offset="1" stop-color="#8D75FF"/></linearGradient><clipPath id="a"><path fill="#fff" d="M0 0h128v128H0z"/></clipPath></defs></svg>