<svg xmlns="http://www.w3.org/2000/svg" width="128" height="128" fill="none"><path fill="url(#a)" d="m79.256 8.678-9.445-6.89a9.31 9.31 0 0 0-10.974 0l-9.445 6.89a9.3 9.3 0 0 1-5.505 1.789l-11.69-.022a9.31 9.31 0 0 0-8.88 6.45l-3.59 11.125a9.3 9.3 0 0 1-3.403 4.683l-9.47 6.854a9.31 9.31 0 0 0-3.392 10.438l3.634 11.11a9.3 9.3 0 0 1 0 5.79l-3.634 11.11a9.31 9.31 0 0 0 3.391 10.438l9.471 6.854a9.3 9.3 0 0 1 3.402 4.683l3.592 11.125a9.31 9.31 0 0 0 8.879 6.45l11.69-.022a9.3 9.3 0 0 1 5.505 1.789l9.445 6.889a9.31 9.31 0 0 0 10.974 0l9.445-6.889a9.3 9.3 0 0 1 5.505-1.789l11.69.022a9.31 9.31 0 0 0 8.879-6.45l3.592-11.126a9.3 9.3 0 0 1 3.402-4.682l9.471-6.854a9.31 9.31 0 0 0 3.391-10.437l-3.634-11.112a9.3 9.3 0 0 1 0-5.788l3.634-11.111a9.31 9.31 0 0 0-3.391-10.438l-9.471-6.854a9.3 9.3 0 0 1-3.402-4.683l-3.592-11.125a9.31 9.31 0 0 0-8.879-6.45l-11.69.022a9.3 9.3 0 0 1-5.505-1.789"/><circle cx="64" cy="64" r="24" fill="#404040"/><defs><linearGradient id="a" x1="64.324" x2="64.324" y1="0" y2="128" gradientUnits="userSpaceOnUse"><stop stop-color="#A0A0A0"/><stop offset="1" stop-color="gray"/></linearGradient></defs></svg>