<svg xmlns="http://www.w3.org/2000/svg" width="128" height="128" fill="none"><mask id="a" width="64" height="128" x="64" y="0" maskUnits="userSpaceOnUse" style="mask-type:alpha"><path fill="#D9D9D9" d="M128 64c0 35.346-28.654 64-64 64V0c35.346 0 64 28.654 64 64"/></mask><g mask="url(#a)"><path fill="url(#b)" d="M128 64c0 35.346-28.654 64-64 64V0c35.346 0 64 28.654 64 64"/><circle cx="64" cy="64" r="38" fill="#FFF5CF"/><path fill="#DF9AFF" d="M64 70h20a4 4 0 0 1 0 8H64zm0 16h44a4 4 0 0 1 0 8H64z"/></g><mask id="c" width="64" height="128" x="0" y="0" maskUnits="userSpaceOnUse" style="mask-type:alpha"><path fill="#D9D9D9" d="M0 64c0 35.346 28.654 64 64 64V0C28.654 0 0 28.654 0 64"/></mask><g mask="url(#c)"><path fill="url(#d)" d="M0 64c0 35.346 28.654 64 64 64V0C28.654 0 0 28.654 0 64"/><circle cx="38" cy="38" r="38" fill="#FFD43A" transform="matrix(-1 0 0 1 102 26)"/></g><circle cx="76" cy="50" r="8" fill="#C19700" fill-opacity=".2"/><circle cx="70" cy="35" r="4" fill="#C19700" fill-opacity=".2"/><circle cx="89" cy="44" r="2" fill="#C19700" fill-opacity=".2"/><defs><linearGradient id="b" x1="96" x2="96" y1="0" y2="128" gradientUnits="userSpaceOnUse"><stop stop-color="#080039"/><stop offset="1" stop-color="#59008F"/></linearGradient><linearGradient id="d" x1="32" x2="32" y1="128" y2="0" gradientUnits="userSpaceOnUse"><stop stop-color="#FF792E"/><stop offset="1" stop-color="#FF61C9"/></linearGradient></defs></svg>