<svg xmlns="http://www.w3.org/2000/svg" width="128" height="128" fill="none"><g clip-path="url(#a)"><path fill="url(#b)" d="M128 64c0 35.346-28.654 64-64 64S0 99.346 0 64 28.654 0 64 0s64 28.654 64 64"/><path fill="url(#c)" d="M128 64c0 35.346-28.654 64-64 64S0 99.346 0 64 28.654 0 64 0s64 28.654 64 64"/><path stroke="#202020" stroke-linecap="round" stroke-width="20" d="M64 64 37.5 82.5"/><path stroke="#FF1515" stroke-linecap="round" stroke-width="20" d="M64 41v23"/></g><defs><linearGradient id="b" x1="64" x2="64" y1="0" y2="128" gradientUnits="userSpaceOnUse"><stop stop-color="#FF2121"/><stop offset="1" stop-color="#B20000"/></linearGradient><linearGradient id="c" x1="64" x2="64" y1="0" y2="128" gradientUnits="userSpaceOnUse"><stop stop-color="#A0A0A0"/><stop offset="1" stop-color="gray"/></linearGradient><clipPath id="a"><path fill="#fff" d="M0 0h128v128H0z"/></clipPath></defs></svg>