<svg xmlns="http://www.w3.org/2000/svg" width="128" height="128" fill="none"><g stroke="#000" stroke-width="12" clip-path="url(#a)"><path stroke-linejoin="round" d="m64 32 6.816 12.463a32 32 0 0 0 12.72 12.72L96 64l-12.463 6.816a32 32 0 0 0-12.72 12.72L64 96l-6.816-12.463a32 32 0 0 0-12.72-12.72L32 64l12.463-6.816a32 32 0 0 0 12.72-12.72z"/><path stroke-linecap="round" d="M122 64c0 32.033-25.967 58-58 58-32.032 0-58-25.967-58-58 0-21.46 11.653-40.207 29.004-50.244C43.53 8.824 53.426 6 64 6s20.47 2.824 28.996 7.756C110.348 23.793 122 42.539 122 64Z"/></g><defs><clipPath id="a"><path fill="#fff" d="M0 0h128v128H0z"/></clipPath></defs></svg>