<svg xmlns="http://www.w3.org/2000/svg" width="128" height="128" fill="none"><g stroke="#000" stroke-width="12" clip-path="url(#a)"><path d="M6 64C6 31.968 31.968 6 64 6c32.033 0 58 25.967 58 58 0 27.52-19.174 50.578-44.898 56.515A58.2 58.2 0 0 1 64 122a58.2 58.2 0 0 1-13.102-1.485C25.174 114.578 6 91.521 6 64Z"/><path d="M78.452 124.361V97.096c0-2.45-.61-4.76-1.687-6.782C92.162 86.273 103.226 75.122 103.226 62c0-5.008-1.611-9.728-4.459-13.876V26.491c0-1.568-1.717-2.538-3.105-1.754l-16.868 9.53c-4.565-1.42-9.56-2.203-14.793-2.203-5.437 0-10.615.844-15.323 2.37l-17.165-9.697c-1.387-.784-3.105.186-3.105 1.754v22.257q.001.283.07.537c-2.375 3.86-3.703 8.169-3.703 12.715 0 13.122 11.064 24.273 26.461 28.314a14.4 14.4 0 0 0-1.687 6.782v27.265"/></g><defs><clipPath id="a"><path fill="#fff" d="M0 0h128v128H0z"/></clipPath></defs></svg>