<svg xmlns="http://www.w3.org/2000/svg" width="128" height="128" fill="none"><path stroke="#000" stroke-linecap="round" stroke-linejoin="round" stroke-width="12" d="m68.977 7.426 41.012 23.678a10.64 10.64 0 0 1 5.322 9.218v47.356c0 3.803-2.029 7.317-5.322 9.218l-41.012 23.678a10.65 10.65 0 0 1-10.643 0L17.322 96.896A10.64 10.64 0 0 1 12 87.678V40.322c0-3.803 2.029-7.317 5.322-9.218L58.334 7.426a10.64 10.64 0 0 1 10.643 0"/><path stroke="#000" stroke-linecap="round" stroke-linejoin="round" stroke-width="12" d="M63.9 61.525v-53m0 53 45.899 26.5m-45.9-26.5-13.856 8v-25l-13.856 8v25L18 88.025"/></svg>