<svg xmlns="http://www.w3.org/2000/svg" width="128" height="128" fill="none"><g stroke="#000" stroke-linecap="round" stroke-width="12" clip-path="url(#a)"><path d="M122 64c0 32.033-25.967 58-58 58-32.032 0-58-25.967-58-58 0-21.46 11.653-40.207 29.004-50.244C43.53 8.824 53.426 6 64 6s20.47 2.824 28.996 7.756C110.348 23.793 122 42.539 122 64Z"/><path stroke-linejoin="round" d="M39.097 80.548h48.806m-36.42 16.516h25.033M32 64.033V63c0-17.673 14.327-32 32-32s32 14.327 32 32v1.032z"/></g><defs><clipPath id="a"><path fill="#fff" d="M0 0h128v128H0z"/></clipPath></defs></svg>