<svg xmlns="http://www.w3.org/2000/svg" width="128" height="128" fill="none"><g stroke="#000" stroke-linecap="round" stroke-width="12" clip-path="url(#a)"><path d="M90 122h12c11.046 0 20-8.954 20-20V54c0-11.046-8.954-20-20-20H26C14.954 34 6 42.954 6 54v16"/><path d="M6 54V26C6 14.954 14.954 6 26 6h76c11.046 0 20 8.954 20 20v28"/><path stroke-linejoin="round" d="M6 106.028h64M53 122l16.97-16L53 90m-30.03 32L6 106l16.97-16"/></g><defs><clipPath id="a"><path fill="#fff" d="M0 0h128v128H0z"/></clipPath></defs></svg>