<svg xmlns="http://www.w3.org/2000/svg" width="128" height="128" fill="none"><path stroke="#000" stroke-linejoin="round" stroke-width="12" d="m66.276 6.636 9.444 6.89a15.3 15.3 0 0 0 9.052 2.94l11.69-.021a3.31 3.31 0 0 1 3.158 2.294l3.592 11.125a15.3 15.3 0 0 0 5.595 7.7l9.47 6.854a3.31 3.31 0 0 1 1.206 3.712l-3.633 11.11a15.3 15.3 0 0 0 0 9.52l3.633 11.11a3.31 3.31 0 0 1-1.206 3.712l-9.47 6.854a15.3 15.3 0 0 0-5.595 7.7l-3.592 11.125a3.31 3.31 0 0 1-3.157 2.294l-11.69-.022a15.3 15.3 0 0 0-9.053 2.941l-9.445 6.89a3.31 3.31 0 0 1-3.903 0l-9.444-6.89a15.3 15.3 0 0 0-9.053-2.941l-11.69.022a3.31 3.31 0 0 1-3.157-2.294l-3.592-11.125a15.3 15.3 0 0 0-5.594-7.7l-9.471-6.854a3.31 3.31 0 0 1-1.206-3.711l3.633-11.112a15.3 15.3 0 0 0 0-9.518L9.165 48.13a3.31 3.31 0 0 1 1.206-3.712l9.47-6.854a15.3 15.3 0 0 0 5.595-7.7l3.592-11.125a3.31 3.31 0 0 1 3.157-2.294l11.69.022a15.3 15.3 0 0 0 9.053-2.941l9.445-6.89a3.31 3.31 0 0 1 3.902 0ZM64.04 82.56c10.17 0 18.415-8.245 18.415-18.415S74.211 45.73 64.041 45.73s-18.415 8.245-18.415 18.415S53.871 82.56 64.041 82.56Z"/></svg>