<svg xmlns="http://www.w3.org/2000/svg" width="128" height="128" fill="none"><g clip-path="url(#a)"><path stroke="#000" stroke-width="12" d="M37.503 32.099C37.503 17.667 49.16 6 63.503 6s26 11.667 26 26.099a26.11 26.11 0 0 1-14.065 23.194c-5.161 1.882-8.695 2.681-11.983 2.706-3.261.025-6.765-.71-11.835-2.679A26.11 26.11 0 0 1 37.503 32.1Z"/><mask id="b" fill="#fff"><path d="M78.567 64c24.749 5.379 44.107 24.17 49.144 47.887 1.951 9.182-6.272 16.113-14.965 16.113H15.255C6.562 128-1.661 121.069.29 111.887 5.327 88.171 24.685 69.379 49.435 64L64 96z"/></mask><path fill="#000" d="m127.711 111.887-11.738 2.493zM78.567 64l2.548-11.726-9.46-2.056-4.01 8.81zM.29 111.887l-11.739-2.493zM49.435 64l10.921-4.971-4.01-8.811-9.46 2.056zM64 96l-10.922 4.971a12 12 0 0 0 21.843 0zm75.449 13.394c-6.08-28.626-29.272-50.804-58.335-57.12l-5.097 23.452c20.436 4.442 35.961 19.847 39.955 38.654zM112.746 140c7.393 0 14.7-2.901 19.933-8.102 5.454-5.42 8.686-13.485 6.771-22.504l-23.477 4.986c.054.253.008.264.036.18.013-.041-.013.082-.248.315-.245.243-.655.54-1.231.773a4.8 4.8 0 0 1-1.784.352zm-124.195-30.606c-1.915 9.02 1.317 17.084 6.771 22.504C.555 137.099 7.862 140 15.255 140v-24a4.8 4.8 0 0 1-1.784-.352c-.576-.233-.986-.53-1.231-.773-.235-.233-.261-.356-.248-.315.028.084-.018.073.036-.18zm58.335-57.12c-29.063 6.316-52.255 28.494-58.335 57.12l23.477 4.986c3.994-18.807 19.52-34.212 39.955-38.654zm28.036 48.697 14.566-32-21.843-9.942-14.566 32zm-36.41-32 14.567 32 21.843-9.942-14.566-32zM15.256 140h97.491v-24H15.255z" mask="url(#b)"/></g><defs><clipPath id="a"><path fill="#fff" d="M0 0h128.001v128H0z"/></clipPath></defs></svg>