<svg xmlns="http://www.w3.org/2000/svg" width="128" height="128" fill="none"><path stroke="#000" stroke-linecap="round" stroke-width="12" d="M64 6c32.033 0 58 25.968 58 58 0 32.033-25.967 58-58 58M64 6C42.532 6 23.788 17.664 13.76 35 8.823 43.531 6 53.436 6 64s2.824 20.469 7.76 29c10.028 17.336 28.772 29 50.24 29M64 6v116M64 6v26m0 90V96m0 0c17.673 0 32-14.327 32-32S81.673 32 64 32m0 64V32"/><path stroke="#000" stroke-linecap="round" stroke-width="12" d="M47.169 74.808C53.146 84.097 64 75.046 64 64v0c0-11.046-10.854-20.097-16.831-10.808A19.9 19.9 0 0 0 44 64c0 3.981 1.163 7.691 3.169 10.808Z"/><path stroke="#000" stroke-dasharray="0.1 25" stroke-linecap="round" stroke-width="12" d="M64 100c-19.882 0-36-16.118-36-36s16.118-36 36-36"/></svg>