<svg xmlns="http://www.w3.org/2000/svg" width="128" height="128" fill="none"><g clip-path="url(#a)"><mask id="b" fill="#fff"><path d="M128 64c0 35.346-28.654 64-64 64S0 99.346 0 64 28.654 0 64 0s64 28.654 64 64"/></mask><path fill="#000" d="M70 41a6 6 0 0 0-12 0zm-6 23 3.435 4.92A6 6 0 0 0 70 64zM34.066 77.58a6 6 0 1 0 6.868 9.84zM58 41v23h12V41zm2.565 18.08-26.5 18.5 6.87 9.84 26.5-18.5zM64 140c41.974 0 76-34.026 76-76h-24c0 28.719-23.281 52-52 52zm-76-76c0 41.974 34.026 76 76 76v-24c-28.719 0-52-23.281-52-52zm76-76c-41.974 0-76 34.026-76 76h24c0-28.719 23.281-52 52-52zm76 76c0-41.974-34.026-76-76-76v24c28.719 0 52 23.281 52 52z" mask="url(#b)"/></g><defs><clipPath id="a"><path fill="#fff" d="M0 0h128v128H0z"/></clipPath></defs></svg>