<svg width="128" height="128" viewBox="0 0 128 128" fill="none" xmlns="http://www.w3.org/2000/svg">
<mask id="path-1-inside-1_1_234" fill="white">
<path d="M128 64C128 99.3462 99.3462 128 64 128C28.6538 128 0 99.3462 0 64C0 28.6538 28.6538 0 64 0C99.3462 0 128 28.6538 128 64Z"/>
</mask>
<path d="M70 41C70 37.6863 67.3137 35 64 35C60.6863 35 58 37.6863 58 41H70ZM64 64L67.4345 68.9197C69.0421 67.7975 70 65.9606 70 64H64ZM34.0655 77.5803C31.3484 79.4771 30.6834 83.2174 32.5803 85.9345C34.4771 88.6516 38.2174 89.3166 40.9345 87.4197L34.0655 77.5803ZM58 41V64H70V41H58ZM60.5654 59.0803L34.0655 77.5803L40.9345 87.4197L67.4345 68.9197L60.5654 59.0803ZM64 140C105.974 140 140 105.974 140 64H116C116 92.7188 92.7188 116 64 116V140ZM-12 64C-12 105.974 22.0264 140 64 140V116C35.2812 116 12 92.7188 12 64H-12ZM64 -12C22.0264 -12 -12 22.0264 -12 64H12C12 35.2812 35.2812 12 64 12V-12ZM140 64C140 22.0264 105.974 -12 64 -12V12C92.7188 12 116 35.2812 116 64H140Z" fill="black" mask="url(#path-1-inside-1_1_234)"/>
</svg>
